<?xml version="1.0" encoding="utf-8"?><svg xmlns="http://www.w3.org/2000/svg" xmlns:xlink="http://www.w3.org/1999/xlink"><symbol viewBox="0 0 31 31" id="Group_46" xmlns="http://www.w3.org/2000/svg"><g data-name="Group 46" transform="translate(-1624 -53)"><circle data-name="Ellipse 15" cx="15.5" cy="15.5" r="15.5" transform="translate(1624 53)"/><g data-name="Group 4"><g data-name="Rectangle 1"><path d="M1634 64h11v11h-11z"/><path d="M1634.5 64.5h10v10h-10z"/></g><g data-name="Rectangle 2"><path d="M1638 61h3a2 2 0 012 2v2h-7v-2a2 2 0 012-2z"/><path d="M1638 61.5h3a1.5 1.5 0 011.5 1.5v1a.5.5 0 01-.5.5h-5a.5.5 0 01-.5-.5v-1a1.5 1.5 0 011.5-1.5z"/></g></g></g></symbol><symbol viewBox="0 0 31 31" id="cart" xmlns="http://www.w3.org/2000/svg"><defs><clipPath id="ba"><path data-name="Rectangle 127" transform="translate(1621 53)" d="M0 0h31v31H0z"/></clipPath></defs><g data-name="Mask Group 7" transform="translate(-1621 -53)" clip-path="url(#ba)"><g data-name="Group 4"><g data-name="Rectangle 1"><path d="M1631 64h11v11h-11z"/><path d="M1631.5 64.5h10v10h-10z"/></g><g data-name="Rectangle 2"><path d="M1635 61h3a2 2 0 012 2v2h-7v-2a2 2 0 012-2z"/><path d="M1635 61.5h3a1.5 1.5 0 011.5 1.5v1a.5.5 0 01-.5.5h-5a.5.5 0 01-.5-.5v-1a1.5 1.5 0 011.5-1.5z"/></g></g></g></symbol><symbol viewBox="0 0 31 31" id="magnifier" xmlns="http://www.w3.org/2000/svg"><g data-name="Group 43"><g data-name="Group 5"><g data-name="Ellipse 1" transform="translate(9 9)"><circle cx="5" cy="5" r="5"/><circle cx="5" cy="5" r="4.5"/></g><path data-name="Path 39" d="M17.055 17.289L22 22"/></g><path data-name="Rectangle 146" d="M0 0h31v31H0z"/></g></symbol><symbol viewBox="0 0 16.263 16.263" id="pensil" xmlns="http://www.w3.org/2000/svg"><g data-name="Group 30"><g data-name="Path 62"><path d="M10.606 1.415l4.243 4.243-8.486 8.485H2.121V9.9z"/><path d="M10.606 2.83l-7.485 7.484v2.829h2.828l7.485-7.485-2.828-2.829m0-1.414l4.243 4.243-8.486 8.485H2.121V9.9l8.485-8.485z"/></g><g data-name="Rectangle 2"><path d="M13.434 1.414l1.414 1.414a2 2 0 010 2.829l-.707.707L9.9 2.121l.707-.707a2 2 0 012.828 0z"/><path d="M13.08 1.768l1.415 1.414a1.5 1.5 0 010 2.121.5.5 0 01-.707 0l-2.829-2.828a.5.5 0 010-.707 1.5 1.5 0 012.122 0z"/></g><path data-name="Path 61" d="M8.635 3.686l4.092 4.092"/><path data-name="Path 63" d="M2.635 9.686l4.092 4.092"/></g></symbol><symbol viewBox="0 0 13 14" id="recycler" xmlns="http://www.w3.org/2000/svg"><g data-name="Group 31" opacity=".35"><g data-name="Rectangle 1" transform="translate(1 4)"><rect width="11" height="10" rx="1"/><rect x=".5" y=".5" width="10" height="9" rx=".5"/></g><g data-name="Rectangle 101" transform="translate(0 2)"><rect width="13" height="3" rx="1.5"/><rect x=".5" y=".5" width="12" height="2" rx="1"/></g><g data-name="Rectangle 2"><path d="M6 0h1a2 2 0 012 2v1H4V2a2 2 0 012-2z"/><path d="M6 .5h1A1.5 1.5 0 018.5 2a.5.5 0 01-.5.5H5a.5.5 0 01-.5-.5A1.5 1.5 0 016 .5z"/></g><path data-name="Path 59" d="M8.484 6.5v5"/><path data-name="Path 60" d="M4.484 6.5v5"/></g></symbol></svg>