<svg xmlns="http://www.w3.org/2000/svg" width="1066.5" height="412.928" viewBox="0 0 1066.5 412.928"><defs><linearGradient id="a" x1=".718" y1=".026" x2=".949" y2=".5" gradientUnits="objectBoundingBox"><stop offset="0" stop-color="#f49a1b"/><stop offset="1" stop-color="#e5df42"/></linearGradient><linearGradient id="b" x1=".328" y1=".14" x2=".672" y2=".934" gradientUnits="objectBoundingBox"><stop offset="0" stop-color="#03a1fc"/><stop offset="1" stop-color="#2eaa9c"/></linearGradient><linearGradient id="c" x1=".393" y1=".5" x2=".5" y2="1" gradientUnits="objectBoundingBox"><stop offset="0" stop-color="#d52e81"/><stop offset="1" stop-color="#77157b"/></linearGradient><linearGradient id="d" x1=".5" y1=".251" x2=".5" y2="1" gradientUnits="objectBoundingBox"><stop offset="0" stop-color="#cb62de"/><stop offset=".547" stop-color="#9548a2"/><stop offset="1" stop-color="#66316f"/></linearGradient></defs><g data-name="Group 47"><path data-name="Path 43" d="M1780.618 197.37c-128.691-32.786-221.5-175.863-218.57 151.442s-433.643 4.057-468.133 31.3 169.862 170.853 169.862 170.853H1780z" transform="translate(-714.118 -138.038)" fill="url(#a)"/><path data-name="Path 41" d="M1780 227.887c-148.443-56.12-221.068-100.12-199.015 168.351s-332.057-142.106-345.027-18.626 84.242 174.413 84.242 174.413H1780z" transform="translate(-713.536 -139.823)" fill="url(#b)"/><path data-name="Path 40" d="M1780 270.314c-263.368-74.062 4.978 364.914-286.291 247.816s-290.841 17.522-300.51 53.607H1780z" transform="translate(-713.56 -158.912)" fill="url(#c)"/><path data-name="Path 42" d="M675.377 571.737c-72.594-103.106 309.1 0 309.1 0z" transform="translate(-666.195 -158.911)" fill="url(#d)"/></g></svg>