<svg xmlns="http://www.w3.org/2000/svg" width="31" height="31" viewBox="0 0 31 31">
  <g id="Group_46" data-name="Group 46" transform="translate(-1624 -53)">
    <circle id="Ellipse_15" data-name="Ellipse 15" cx="15.5" cy="15.5" r="15.5" transform="translate(1624 53)" fill="#f5f5f5"/>
    <g id="Group_4" data-name="Group 4" transform="translate(30)">
      <g id="Rectangle_1" data-name="Rectangle 1" transform="translate(1604 64)" fill="none" stroke="#2b9dff" stroke-width="1">
        <rect width="11" height="11" stroke="none"/>
        <rect x="0.5" y="0.5" width="10" height="10" fill="none"/>
      </g>
      <g id="Rectangle_2" data-name="Rectangle 2" transform="translate(1606 61)" fill="none" stroke="#2b9dff" stroke-width="1">
        <path d="M2,0H5A2,2,0,0,1,7,2V4A0,0,0,0,1,7,4H0A0,0,0,0,1,0,4V2A2,2,0,0,1,2,0Z" stroke="none"/>
        <path d="M2,.5H5A1.5,1.5,0,0,1,6.5,2V3a.5.5,0,0,1-.5.5H1A.5.5,0,0,1,.5,3V2A1.5,1.5,0,0,1,2,.5Z" fill="none"/>
      </g>
    </g>
  </g>
</svg>
