<svg xmlns="http://www.w3.org/2000/svg" xmlns:xlink="http://www.w3.org/1999/xlink" width="31" height="31" viewBox="0 0 31 31">
  <defs>
    <clipPath id="clip-path">
      <rect id="Rectangle_127" data-name="Rectangle 127" width="31" height="31" transform="translate(1621 53)" fill="#fff" stroke="#707070" stroke-width="1"/>
    </clipPath>
  </defs>
  <g id="Mask_Group_7" data-name="Mask Group 7" transform="translate(-1621 -53)" clip-path="url(#clip-path)">
    <g id="Group_4" data-name="Group 4" transform="translate(27)">
      <g id="Rectangle_1" data-name="Rectangle 1" transform="translate(1604 64)" fill="none" stroke="#fff" stroke-width="1">
        <rect width="11" height="11" stroke="none"/>
        <rect x="0.5" y="0.5" width="10" height="10" fill="none"/>
      </g>
      <g id="Rectangle_2" data-name="Rectangle 2" transform="translate(1606 61)" fill="none" stroke="#fff" stroke-width="1">
        <path d="M2,0H5A2,2,0,0,1,7,2V4A0,0,0,0,1,7,4H0A0,0,0,0,1,0,4V2A2,2,0,0,1,2,0Z" stroke="none"/>
        <path d="M2,.5H5A1.5,1.5,0,0,1,6.5,2V3a.5.5,0,0,1-.5.5H1A.5.5,0,0,1,.5,3V2A1.5,1.5,0,0,1,2,.5Z" fill="none"/>
      </g>
    </g>
  </g>
</svg>
