<?xml version="1.0" encoding="utf-8"?>
<!-- Generator: Adobe Illustrator 14.0.0, SVG Export Plug-In . SVG Version: 6.00 Build 43363)  -->
<!DOCTYPE svg PUBLIC "-//W3C//DTD SVG 1.1//EN" "http://www.w3.org/Graphics/SVG/1.1/DTD/svg11.dtd">
<svg version="1.1" id="Layer_1" xmlns="http://www.w3.org/2000/svg" xmlns:xlink="http://www.w3.org/1999/xlink" x="0px" y="0px"
	 width="31px" height="31px" viewBox="0 0 31 31" enable-background="new 0 0 31 31" xml:space="preserve">
<path d="M21.167,22.334h-11v-11h11V22.334L21.167,22.334z M11.167,21.334h9v-9h-9V21.334L11.167,21.334z"/>
<path d="M18.167,12.333h-5c-0.551,0-1-0.449-1-1v-1c0-1.103,0.897-2,2-2h3c1.103,0,2,0.897,2,2v1
	C19.167,11.885,18.719,12.333,18.167,12.333L18.167,12.333z M18.167,11.333v0.5V11.333L18.167,11.333L18.167,11.333z M14.167,9.333
	c-0.551,0-1,0.449-1,1v1h5v-1c0-0.551-0.448-1-1-1H14.167L14.167,9.333z"/>
</svg>
