<?xml version="1.0" encoding="utf-8"?>
<!-- Generator: Adobe Illustrator 14.0.0, SVG Export Plug-In . SVG Version: 6.00 Build 43363)  -->
<!DOCTYPE svg PUBLIC "-//W3C//DTD SVG 1.1//EN" "http://www.w3.org/Graphics/SVG/1.1/DTD/svg11.dtd">
<svg version="1.1" id="Layer_1" xmlns="http://www.w3.org/2000/svg" xmlns:xlink="http://www.w3.org/1999/xlink" x="0px" y="0px"
	 width="352.488px" height="600px" viewBox="223.756 0 352.488 600" enable-background="new 223.756 0 352.488 600"
	 xml:space="preserve">
<g>
	<g>
		<path fill="#60B6FF" d="M342.205,300.127L566.663,75.659c6.181-6.166,9.581-14.41,9.581-23.2c0-8.795-3.4-17.034-9.581-23.209L546.995,9.59
			C540.824,3.405,532.575,0,523.785,0s-17.029,3.405-23.205,9.59L233.327,276.839c-6.2,6.195-9.595,14.473-9.571,23.273
			c-0.024,8.839,3.366,17.107,9.571,23.308l267.005,266.99c6.175,6.185,14.414,9.59,23.21,9.59c8.79,0,17.028-3.405,23.209-9.59
			l19.664-19.659c12.795-12.795,12.795-33.624,0-46.414L342.205,300.127z"/>
	</g>
</g>
</svg>
