<svg xmlns="http://www.w3.org/2000/svg" width="16.263" height="16.263" viewBox="0 0 16.263 16.263">
  <g id="Group_30" data-name="Group 30" transform="translate(-1757.277 -291.537)">
    <g id="Path_62" data-name="Path 62" transform="translate(1767.883 292.952) rotate(45)" fill="none">
      <path d="M0,0H6V12L3,15,0,12Z" stroke="none"/>
      <path d="M 1 1 L 1 11.58578014373779 L 3 13.58578014373779 L 5 11.58578014373779 L 5 1 L 1 1 M 0 0 L 6 0 L 6 12 L 3 15 L 0 12 L 0 0 Z" stroke="none" fill="#2b9dff"/>
    </g>
    <g id="Rectangle_2" data-name="Rectangle 2" transform="translate(1769.297 291.537) rotate(45)" fill="none" stroke="#2b9dff" stroke-width="1">
      <path d="M2,0H4A2,2,0,0,1,6,2V3A0,0,0,0,1,6,3H0A0,0,0,0,1,0,3V2A2,2,0,0,1,2,0Z" stroke="none"/>
      <path d="M2,.5H4A1.5,1.5,0,0,1,5.5,2V2a.5.5,0,0,1-.5.5H1A.5.5,0,0,1,.5,2V2A1.5,1.5,0,0,1,2,.5Z" fill="none"/>
    </g>
    <path id="Path_61" data-name="Path 61" d="M13507.679,296.589h5.787" transform="translate(-7575.739 -9465.869) rotate(45)" fill="none" stroke="#2b9dff" stroke-width="1"/>
    <path id="Path_63" data-name="Path 63" d="M13507.679,296.589h5.787" transform="translate(-7581.739 -9459.869) rotate(45)" fill="none" stroke="#2b9dff" stroke-width="1"/>
  </g>
</svg>
