<svg xmlns="http://www.w3.org/2000/svg" width="137.328" height="40" viewBox="0 0 137.328 40"><path fill="#EF7778" d="M15.622 32.952c-.332.195-.678.374-1.034.536a9.586 9.586 0 0 1-3.921.832c-5.321 0-9.638-4.313-9.638-9.633 0-.406.024-.804.076-1.193a9.526 9.526 0 0 1 1.535-4.138 9.536 9.536 0 0 1 1.233-1.5c1.715 1.084 3.515 2.523 5.245 4.252 2.718 2.72 4.729 5.624 5.757 8.084.42 1.009.676 1.942.747 2.76"/><path fill="#A74C8A" d="M18.239 30.636a9.732 9.732 0 0 1-2.618 2.315c-.332.195-.677.377-1.034.537-2.798-.441-6.765-2.81-10.406-6.444a32.604 32.604 0 0 1-3.079-3.55 9.526 9.526 0 0 1 1.535-4.138 9.546 9.546 0 0 1 2.281-2.401 9.354 9.354 0 0 1 2.256-1.245c.868.587 1.75 1.259 2.628 2.011a32.207 32.207 0 0 1 1.92 1.781 32.838 32.838 0 0 1 1.78 1.92c1.971 2.303 3.405 4.63 4.152 6.625.359.952.559 1.825.585 2.589"/><path fill="#453583" d="M20.27 25.449l-.015.175a9.547 9.547 0 0 1-2.282 5.336c-.892-.02-1.946-.285-3.098-.768-2.462-1.026-5.367-3.037-8.085-5.756-1.675-1.676-3.078-3.415-4.151-5.08a9.49 9.49 0 0 1 1.233-1.5 9.185 9.185 0 0 1 1.048-.901 9.373 9.373 0 0 1 2.256-1.245 9.585 9.585 0 0 1 5.34-.476.27.27 0 0 1 .041.005 32.625 32.625 0 0 1 1.774 1.655 33.21 33.21 0 0 1 1.781 1.92c1.971 2.307 3.41 4.64 4.158 6.635"/><path fill="#1E4AA5" d="M20.3 24.688c0 .255-.01.512-.03.762l-.015.175a9.582 9.582 0 0 1-.761 2.93 9.449 9.449 0 0 1-1.836-.507c-2.553-.957-5.651-3.05-8.54-5.938-1.7-1.698-3.12-3.465-4.197-5.153a9.477 9.477 0 0 1 2.256-1.245 9.585 9.585 0 0 1 5.34-.476.27.27 0 0 1 .041.005 9.666 9.666 0 0 1 7.196 6.244c.355.999.546 2.079.546 3.203"/><path fill="#4885C6" d="M13.45 10.852a14.321 14.321 0 0 1-2.167-.718c.226-.531.461-1.022.718-1.473.281-.512.581-.979.892-1.4 1.645.928 3.405 2.211 5.131 3.782-1.354.229-2.864.229-4.574-.186v-.005zm6.85 13.836c0 .255-.01.512-.03.762l-.015.175c-2.021-.731-4.403-2.189-6.75-4.202a32.815 32.815 0 0 1-1.92-1.779 33.518 33.518 0 0 1-1.78-1.922 31.815 31.815 0 0 1-1.792-2.296 9.585 9.585 0 0 1 4.503-.191.27.27 0 0 1 .041.005 9.666 9.666 0 0 1 7.196 6.244c.356 1 .547 2.08.547 3.204"/><path fill="#89D4F5" d="M19.753 21.484a28.05 28.05 0 0 1-3.64-2.67 32.851 32.851 0 0 1-1.921-1.78 32.819 32.819 0 0 1-1.676-1.8.27.27 0 0 1 .041.005 9.664 9.664 0 0 1 7.196 6.245M21.97 9.738c-.065.029-.125.061-.186.085-.261.12-.517.231-.773.335-.893.367-1.855.688-2.908.874-.025.005-.055.005-.081.011-1.353.229-2.862.229-4.573-.186v-.005a14.424 14.424 0 0 1-2.167-.717c.226-.532.461-1.023.718-1.474a11.655 11.655 0 0 1 2.221-2.9c.441-.406.888-.763 1.349-1.068 1.379.782 2.833 1.815 4.278 3.059a31.542 31.542 0 0 1 1.881 1.746l.241.24"/><path fill="#28BDEF" d="M24.923 7.777c-.04.035-.085.07-.125.105-.908.813-1.871 1.394-2.828 1.856-.065.029-.126.061-.186.084a17.91 17.91 0 0 1-.772.336c-.893.366-1.855.688-2.908.874-.025.005-.055.005-.081.011-1.354.229-2.863.229-4.573-.186v-.006a26.385 26.385 0 0 1-1.449-2.19 11.655 11.655 0 0 1 2.221-2.9c.441-.406.889-.763 1.349-1.067.478-.327.958-.602 1.439-.844.407-.205.809-.386 1.204-.545.321-.13.646-.256.989-.371h.004a29.955 29.955 0 0 1 3.109 2.352 32.545 32.545 0 0 1 1.881 1.746c.25.244.491.494.726.745"/><path fill="#1FAFE4" d="M27.11 5.014a11.585 11.585 0 0 1-2.187 2.763c-.04.035-.085.07-.125.105-.908.813-1.871 1.395-2.828 1.856-.065.029-.125.061-.186.084-.261.121-.517.232-.773.336-.893.366-1.855.688-2.908.874-1.63-1.771-2.944-3.58-3.881-5.271.441-.406.887-.763 1.349-1.069.477-.324.958-.6 1.439-.842.407-.205.808-.385 1.204-.545.321-.13.647-.256.989-.371h.004c.341-.116.692-.226 1.053-.315a11.107 11.107 0 0 1 3.946-.285c.823.676 1.65 1.422 2.458 2.23.15.15.295.3.446.45"/><path fill="#6DCAD5" d="M27.942 3.334a14.542 14.542 0 0 1-.832 1.681 11.644 11.644 0 0 1-2.187 2.762c-.04.037-.084.071-.125.105-.909.813-1.871 1.394-2.828 1.856-.065.029-.125.061-.186.085l-.19-.192a31.226 31.226 0 0 1-1.745-1.88A27.853 27.853 0 0 1 17.01 3.85a17.62 17.62 0 0 1 2.192-.917h.005c.341-.116.691-.226 1.053-.315a11.132 11.132 0 0 1 3.947-.285c1.143.124 2.381.43 3.735 1.001"/><path fill="#0CBABE" d="M27.942 3.334a14.542 14.542 0 0 1-.832 1.681 11.644 11.644 0 0 1-2.187 2.762c-.04.037-.084.071-.125.105a32.534 32.534 0 0 1-2.483-2.598 29.796 29.796 0 0 1-2.056-2.667 11.132 11.132 0 0 1 3.947-.285c1.144.125 2.382.431 3.736 1.002"/><path d="M52.55 23.927H41.621l-3.094 8.16h-.897l9.04-23.504h.831l9.04 23.503h-.912l-3.079-8.159zm-10.636-.749h10.343L47.126 9.706h-.081l-5.131 13.472zm30.656-6.369c1.368 1.672 2.054 3.844 2.054 6.516 0 2.681-.686 4.853-2.054 6.515-1.367 1.672-3.148 2.509-5.341 2.509-1.684 0-3.161-.526-4.431-1.58-1.206-.998-1.988-2.271-2.346-3.812h-.033v10.668h-.797V14.561h.749v5.228h.033c.369-1.574 1.162-2.872 2.378-3.894 1.27-1.064 2.753-1.596 4.447-1.596 2.182.001 3.962.837 5.341 2.51zm-.587 12.475c1.227-1.519 1.842-3.501 1.842-5.943 0-2.455-.615-4.448-1.842-5.979-1.237-1.542-2.839-2.313-4.805-2.313-1.986 0-3.611.771-4.87 2.313-1.258 1.543-1.889 3.53-1.889 5.962s.631 4.42 1.889 5.96c1.259 1.532 2.884 2.298 4.87 2.298 1.967 0 3.568-.766 4.805-2.298zm19.403-12.475c1.366 1.672 2.053 3.844 2.053 6.516 0 2.681-.687 4.853-2.053 6.515-1.368 1.672-3.149 2.509-5.343 2.509-1.684 0-3.16-.526-4.43-1.58-1.207-.998-1.988-2.271-2.347-3.812h-.032v10.668h-.798V14.561h.749v5.228h.032c.369-1.574 1.161-2.872 2.379-3.894 1.27-1.064 2.753-1.596 4.446-1.596 2.184.001 3.964.837 5.344 2.51zm-.587 12.475c1.228-1.519 1.84-3.501 1.84-5.943 0-2.455-.612-4.448-1.84-5.979-1.237-1.542-2.84-2.313-4.804-2.313-1.988 0-3.611.771-4.872 2.313-1.259 1.543-1.889 3.53-1.889 5.962s.63 4.42 1.889 5.96c1.261 1.532 2.884 2.298 4.872 2.298 1.964 0 3.567-.766 4.804-2.298zm6.615-21.727h.799v24.53h-.799V7.557zm19.63 19.66c-.304 1.519-1.069 2.743-2.297 3.665-1.292.977-2.894 1.466-4.805 1.466-2.379 0-4.257-.793-5.635-2.378-1.414-1.608-2.117-3.823-2.117-6.646 0-2.715.693-4.897 2.083-6.548 1.391-1.65 3.237-2.476 5.539-2.476 2.226 0 4.027.778 5.408 2.329 1.366 1.554 2.053 3.59 2.053 6.108v.619h-14.269v.032c0 2.573.634 4.593 1.905 6.06 1.248 1.434 2.932 2.149 5.048 2.149 1.694 0 3.111-.423 4.252-1.271a5.026 5.026 0 0 0 2.003-3.11h.832zm-12.02-10.084c-1.239 1.38-1.906 3.21-2.004 5.49h13.438c0-2.249-.608-4.072-1.826-5.472-1.226-1.4-2.833-2.102-4.819-2.102-1.955 0-3.551.695-4.789 2.084zm14.953-1.303l2.135-7.247h.814l-2.167 7.247h-.782zm5.89-.244c1.128-.857 2.519-1.286 4.169-1.286 1.748 0 3.177.483 4.282 1.451 1.099.956 1.722 2.251 1.874 3.893h-.781c-.152-1.369-.689-2.471-1.612-3.307-.978-.858-2.232-1.287-3.763-1.287-1.4 0-2.589.359-3.567 1.076-1.021.738-1.531 1.666-1.531 2.785 0 .922.314 1.655.945 2.199.608.51 1.591.922 2.947 1.236l2.721.652c1.737.424 2.99.987 3.763 1.693.771.717 1.156 1.667 1.156 2.852 0 1.422-.598 2.578-1.792 3.469-1.193.892-2.72 1.336-4.576 1.336-1.835 0-3.372-.511-4.609-1.531-1.207-.988-1.852-2.216-1.939-3.682h.814c.108 1.249.694 2.302 1.761 3.159 1.085.87 2.404 1.304 3.957 1.304 1.573 0 2.888-.37 3.942-1.107 1.085-.75 1.628-1.716 1.628-2.9 0-1.009-.336-1.813-1.01-2.409-.673-.598-1.786-1.079-3.339-1.449l-2.753-.636c-1.498-.358-2.601-.857-3.307-1.5-.737-.685-1.106-1.573-1.106-2.67 0-1.348.576-2.46 1.726-3.341z"/></svg>