<?xml version="1.0" encoding="utf-8"?>
<!-- Generator: Adobe Illustrator 16.0.2, SVG Export Plug-In . SVG Version: 6.00 Build 0)  -->
<!DOCTYPE svg PUBLIC "-//W3C//DTD SVG 1.1//EN" "http://www.w3.org/Graphics/SVG/1.1/DTD/svg11.dtd">
<svg version="1.1" id="Слой_1" xmlns="http://www.w3.org/2000/svg" xmlns:xlink="http://www.w3.org/1999/xlink" x="0px" y="0px"
	 width="613px" height="175px" viewBox="-7.86 331.445 613 175" enable-background="new -7.86 331.445 613 175"
	 xml:space="preserve">
<g id="Group_3" transform="translate(-390.955 -1271.964)">
	<g id="Group_2" transform="translate(390.955 1273.92)">
		<path id="Path_27" fill="#EF7778" d="M65.034,477.762c-1.301,0.867-3.035,1.734-4.77,2.602c-21.678,9.539-47.258,0-56.797-21.678
			c-2.601-5.637-3.901-11.273-3.901-17.342c0-1.734,0-3.469,0.434-5.203c1.301-9.539,5.636-18.21,12.14-25.147
			c8.671,5.637,16.476,11.706,23.412,19.077c10.839,10.406,19.511,22.545,25.58,35.986C63.3,469.092,64.601,473.426,65.034,477.762z
			"/>
		<path id="Path_28" fill="#A74C8A" d="M76.74,467.358c-0.434,0.434-0.867,0.867-1.301,1.301c-3.035,3.469-6.503,6.502-10.405,8.67
			c-1.301,0.867-3.035,1.734-4.77,2.602c-12.573-2.168-30.35-12.572-46.391-28.615C9.105,446.547,4.335,440.911,0,435.274
			c1.301-11.707,7.804-22.112,16.908-29.049c3.035-2.168,6.504-4.335,9.973-5.636c3.901,2.602,7.804,5.636,11.706,9.105
			c3.035,2.601,5.636,5.203,8.671,7.804c3.035,2.603,5.637,5.636,7.805,8.671c7.804,8.672,13.874,18.645,18.643,29.482
			C75.44,459.553,76.307,463.455,76.74,467.358z"/>
		<path id="Path_29" fill="#453583" d="M85.845,443.946c0,0.434,0,0.434,0,0.867c-0.867,8.236-3.901,16.041-9.104,22.545
			c-0.434,0.434-0.867,0.867-1.301,1.301c-4.77-0.434-9.538-1.301-13.874-3.469c-13.44-6.07-25.58-14.742-35.985-25.58
			c-6.938-6.938-13.007-14.309-18.644-22.545c1.734-2.602,3.469-4.77,5.637-6.938c4.335-4.335,9.104-7.37,14.741-9.538
			c1.301-0.434,2.601-0.867,3.901-1.301c3.902-1.301,7.805-1.734,11.707-1.734c2.601,0,5.636,0.434,8.237,0.867l0,0
			c2.602,2.168,5.202,4.77,7.804,7.371c2.602,3.035,5.637,5.636,7.805,8.671C75.006,423.133,81.51,433.106,85.845,443.946z"/>
		<path id="Path_30" fill="#1E4AA5" d="M85.845,440.911c0,1.301,0,2.168,0,3.469c0,0.434,0,0.434,0,0.867
			c-0.434,4.334-1.734,9.104-3.468,13.006c-2.602-0.434-5.637-1.301-8.238-2.168c-14.308-6.07-27.314-15.174-38.153-26.447
			c-6.937-7.371-13.44-15.174-18.644-23.412c3.035-2.168,6.504-4.335,9.973-5.636c1.301-0.434,2.601-0.867,3.901-1.301
			c3.902-1.301,7.805-1.734,11.707-1.734c2.601,0,5.636,0.434,8.237,0.867l0,0c14.741,3.035,26.881,13.44,32.083,27.748
			C84.978,430.938,85.845,435.707,85.845,440.911z"/>
		<path id="Path_31" fill="#4885C6" d="M55.496,378.911c-3.469-0.867-6.504-1.734-9.539-3.035c0.867-2.168,2.168-4.336,3.035-6.503
			c1.301-2.168,2.602-4.336,3.902-6.07c8.237,4.769,16.042,10.405,22.979,16.909C68.937,381.078,61.999,380.645,55.496,378.911
			L55.496,378.911z"/>
		<path id="Path_32" fill="#4885C6" d="M85.845,440.911c0,1.301,0,2.168,0,3.469c0,0.434,0,0.434,0,0.867
			c-10.839-4.336-21.244-10.84-29.915-18.645c-3.035-2.602-5.637-5.203-8.672-7.804c-3.035-2.601-5.636-5.636-7.804-8.671
			c-3.035-3.468-5.637-6.937-7.805-10.405c3.902-1.301,7.805-1.734,11.706-1.734c2.602,0,5.637,0.434,8.238,0.867l0,0
			c14.741,3.035,26.881,13.44,32.083,27.748C84.978,430.938,85.845,435.707,85.845,440.911z"/>
		<path id="Path_33" fill="#89D4F5" d="M83.677,426.602c-5.636-3.469-11.272-7.37-16.041-11.706
			c-3.035-2.602-5.637-5.203-8.672-7.804c-2.602-2.602-5.202-5.203-7.37-8.238l0,0C66.335,401.456,78.475,412.295,83.677,426.602z"
			/>
		<path id="Path_34" fill="#89D4F5" d="M93.216,374.141c-0.434,0-0.434,0.434-0.867,0.434c-1.301,0.434-2.168,0.867-3.469,1.301
			c-4.336,1.734-8.671,3.035-13.007,3.902H75.44c-6.937,1.301-13.874,0.867-20.377-0.867l0,0c-3.469-0.867-6.504-1.734-9.539-3.035
			c0.867-2.168,2.168-4.336,3.035-6.503c1.301-2.168,2.602-4.336,3.902-6.07c1.734-2.602,3.901-4.77,6.069-6.503
			c2.168-2.168,4.336-3.902,6.504-5.203c6.937,3.902,13.007,8.671,19.076,13.44c2.602,2.602,5.637,5.203,8.238,7.804L93.216,374.141
			z"/>
		<path id="Path_35" fill="#28BDEF" d="M106.656,365.47l-0.434,0.434c-3.902,3.469-8.238,6.07-12.573,8.238
			c-0.434,0-0.434,0.434-0.867,0.434c-1.301,0.434-2.168,0.867-3.469,1.301c-4.336,1.734-8.671,3.035-13.007,3.902h-0.434
			c-6.937,1.301-13.874,0.867-20.377-0.867l0,0c-2.602-3.468-4.77-6.503-6.504-9.972c1.301-2.168,2.602-4.336,3.902-6.07
			c1.734-2.602,3.901-4.77,6.069-6.503c1.734-1.734,3.902-3.469,6.07-4.77c2.168-1.3,4.336-2.601,6.503-3.902
			c1.734-0.867,3.469-1.734,5.203-2.602c1.301-0.434,3.035-1.3,4.336-1.734l0,0c4.769,3.035,9.538,6.503,13.874,10.405
			c2.601,2.602,5.636,5.203,8.237,7.804C104.489,363.303,105.356,364.169,106.656,365.47z"/>
		<path id="Path_36" fill="#1FAFE4" d="M116.195,352.897c-2.602,4.769-6.07,8.671-9.538,12.14l-0.434,0.434
			c-3.902,3.469-8.238,6.07-12.573,8.238c-0.434,0-0.434,0.434-0.867,0.434c-1.301,0.434-2.168,0.867-3.469,1.301
			c-4.336,1.734-8.671,3.035-13.007,3.902c-6.504-6.937-12.573-15.175-17.343-23.412c1.734-1.301,3.902-3.035,6.07-4.336
			c2.168-1.3,4.336-2.601,6.503-3.902c1.734-0.867,3.469-1.734,5.203-2.602c1.301-0.434,3.035-1.3,4.336-1.734l0,0
			c1.733-0.434,3.034-0.867,4.769-1.301c5.637-1.301,11.706-1.734,17.776-1.301c3.469,3.035,7.37,6.503,10.839,9.972
			C114.894,351.596,115.761,352.463,116.195,352.897z"/>
		<path id="Path_37" fill="#6DCAD5" d="M120.097,345.526c-0.867,2.602-2.168,5.203-3.902,7.371c-2.602,4.769-6.07,8.671-9.538,12.14
			l-0.434,0.434c-3.902,3.469-8.238,6.07-12.573,8.238c-0.434,0-0.434,0.434-0.867,0.434l-0.867-0.867
			c-2.602-2.602-5.203-5.636-7.805-8.238c-4.769-5.636-9.104-11.272-12.573-17.342c1.734-0.867,3.469-1.734,5.203-2.602
			c1.301-0.434,3.035-1.3,4.336-1.734l0,0c1.733-0.434,3.034-0.867,4.769-1.301c5.637-1.301,11.706-1.734,17.776-1.301
			C109.257,341.624,114.894,343.359,120.097,345.526z"/>
		<path id="Path_38" fill="#0CBABE" d="M120.097,345.526c-0.867,2.602-2.168,5.203-3.902,7.371c-2.602,4.769-6.07,8.671-9.538,12.14
			l-0.434,0.434c-1.301-0.867-2.168-2.167-3.469-3.035c-2.602-2.602-5.203-5.636-7.804-8.238c-3.469-3.902-6.504-7.804-9.105-11.706
			c5.637-1.301,11.706-1.734,17.776-1.301C109.257,341.624,114.894,343.359,120.097,345.526z"/>
	</g>
	<g enable-background="new    ">
		<path fill="#FFFFFF" d="M620.07,1708.674h-48.125l-13.874,35.984h-3.902l39.888-104.054h3.469l39.888,104.054h-3.469
			L620.07,1708.674z M573.246,1705.639h45.523l-22.545-59.398h-0.434L573.246,1705.639z"/>
		<path fill="#FFFFFF" d="M715.454,1707.374c0,22.979-13.007,38.586-31.65,38.586c-14.74,0-26.014-10.404-29.048-22.979l0,0v46.391
			h-3.469v-99.286h3.469v22.112l0,0c3.034-13.007,14.307-23.413,29.048-23.413C702.447,1668.786,715.454,1684.827,715.454,1707.374z
			 M711.985,1707.374c0-20.812-11.706-35.553-28.182-35.553c-16.908,0-28.614,14.308-28.614,35.119
			c0,20.811,11.706,35.117,28.614,35.117C700.279,1742.924,711.985,1728.618,711.985,1707.374z"/>
		<path fill="#FFFFFF" d="M796.097,1707.374c0,22.979-13.007,38.586-31.65,38.586c-14.741,0-26.014-10.404-29.049-22.979l0,0v46.391
			h-3.468v-99.286h3.468v22.112l0,0c3.035-13.007,14.308-23.413,29.049-23.413C783.09,1668.786,796.097,1684.827,796.097,1707.374z
			 M792.628,1707.374c0-20.812-11.706-35.553-28.182-35.553c-16.909,0-28.615,14.308-28.615,35.119
			c0,20.811,11.706,35.117,28.615,35.117C780.922,1742.924,792.628,1728.618,792.628,1707.374z"/>
		<path fill="#FFFFFF" d="M813.44,1641.038h3.468v104.055h-3.468V1641.038z"/>
		<path fill="#FFFFFF" d="M897.55,1724.282c-2.602,12.574-13.44,21.678-30.35,21.678c-19.943,0-32.95-14.307-32.95-38.586
			c0-23.414,13.007-38.588,32.517-38.588c19.077,0,32.084,14.741,32.084,35.987v2.602h-60.698l0,0
			c0,22.111,11.706,35.117,29.481,35.117c14.741,0,24.28-8.238,26.447-18.643h3.469V1724.282z M837.719,1704.338h57.23
			c0-19.078-11.273-32.084-28.182-32.084C849.859,1672.254,838.586,1685.261,837.719,1704.338z"/>
		<path fill="#FFFFFF" d="M911.424,1671.82l6.938-30.783h3.901l-7.37,30.783H911.424z"/>
		<path fill="#FFFFFF" d="M953.48,1668.786c15.175,0,25.146,8.671,26.881,22.979h-3.469c-1.734-12.14-10.405-19.51-23.412-19.51
			c-12.14,0-21.245,6.937-21.245,16.476c0,7.804,5.203,12.14,18.21,15.175l9.972,2.168c14.741,3.469,20.812,9.105,20.812,19.076
			c0,12.141-10.839,20.377-26.881,20.377c-15.608,0-27.314-9.104-28.615-22.111h3.469c1.3,11.273,11.706,19.078,24.713,19.078
			c13.44,0,22.979-6.938,22.979-17.344c0-8.67-5.203-13.439-18.21-16.475l-9.972-2.168c-14.308-3.035-20.811-9.105-20.811-18.21
			C928.333,1677.457,939.172,1668.786,953.48,1668.786z"/>
	</g>
</g>
</svg>
