<svg xmlns="http://www.w3.org/2000/svg" width="613" height="175" viewBox="-7.86 331.445 613 175"><path fill="#EF7778" d="M65.034 479.718c-1.301.867-3.035 1.734-4.77 2.602-21.678 9.539-47.258 0-56.797-21.678C.866 455.005-.434 449.369-.434 443.3c0-1.734 0-3.469.434-5.203 1.301-9.539 5.636-18.21 12.14-25.147 8.671 5.637 16.476 11.706 23.412 19.077 10.839 10.406 19.511 22.545 25.58 35.986 2.168 3.035 3.469 7.369 3.902 11.705z"/><path fill="#A74C8A" d="M76.74 469.314l-1.301 1.301c-3.035 3.469-6.503 6.502-10.405 8.67-1.301.867-3.035 1.734-4.77 2.602-12.573-2.168-30.35-12.572-46.391-28.615C9.105 448.503 4.335 442.867 0 437.23c1.301-11.707 7.804-22.112 16.908-29.049 3.035-2.168 6.504-4.335 9.973-5.636 3.901 2.602 7.804 5.636 11.706 9.105 3.035 2.601 5.636 5.203 8.671 7.804 3.035 2.603 5.637 5.636 7.805 8.671 7.804 8.672 13.874 18.645 18.643 29.482 1.734 3.902 2.601 7.804 3.034 11.707z"/><path fill="#453583" d="M85.845 445.902v.867c-.867 8.236-3.901 16.041-9.104 22.545l-1.301 1.301c-4.77-.434-9.538-1.301-13.874-3.469-13.44-6.07-25.58-14.742-35.985-25.58-6.938-6.938-13.007-14.309-18.644-22.545 1.734-2.602 3.469-4.77 5.637-6.938 4.335-4.335 9.104-7.37 14.741-9.538l3.901-1.301c3.902-1.301 7.805-1.734 11.707-1.734 2.601 0 5.636.434 8.237.867 2.602 2.168 5.202 4.77 7.804 7.371 2.602 3.035 5.637 5.636 7.805 8.671 8.237 8.67 14.741 18.643 19.076 29.483z"/><path fill="#1E4AA5" d="M85.845 442.867v4.336c-.434 4.334-1.734 9.104-3.468 13.006-2.602-.434-5.637-1.301-8.238-2.168-14.308-6.07-27.314-15.174-38.153-26.447-6.937-7.371-13.44-15.174-18.644-23.412 3.035-2.168 6.504-4.335 9.973-5.636l3.901-1.301c3.902-1.301 7.805-1.734 11.707-1.734 2.601 0 5.636.434 8.237.867 14.741 3.035 26.881 13.44 32.083 27.748 1.735 4.768 2.602 9.537 2.602 14.741z"/><path fill="#4885C6" d="M55.496 380.867c-3.469-.867-6.504-1.734-9.539-3.035.867-2.168 2.168-4.336 3.035-6.503 1.301-2.168 2.602-4.336 3.902-6.07 8.237 4.769 16.042 10.405 22.979 16.909-6.936.866-13.874.433-20.377-1.301zm30.349 62v4.336c-10.839-4.336-21.244-10.84-29.915-18.645-3.035-2.602-5.637-5.203-8.672-7.804-3.035-2.601-5.636-5.636-7.804-8.671-3.035-3.468-5.637-6.937-7.805-10.405 3.902-1.301 7.805-1.734 11.706-1.734 2.602 0 5.637.434 8.238.867 14.741 3.035 26.881 13.44 32.083 27.748 1.302 4.335 2.169 9.104 2.169 14.308z"/><path fill="#89D4F5" d="M83.677 428.558c-5.636-3.469-11.272-7.37-16.041-11.706-3.035-2.602-5.637-5.203-8.672-7.804-2.602-2.602-5.202-5.203-7.37-8.238 14.741 2.602 26.881 13.441 32.083 27.748zm9.539-52.461c-.434 0-.434.434-.867.434-1.301.434-2.168.867-3.469 1.301-4.336 1.734-8.671 3.035-13.007 3.902h-.433c-6.937 1.301-13.874.867-20.377-.867-3.469-.867-6.504-1.734-9.539-3.035.867-2.168 2.168-4.336 3.035-6.503 1.301-2.168 2.602-4.336 3.902-6.07 1.734-2.602 3.901-4.77 6.069-6.503 2.168-2.168 4.336-3.902 6.504-5.203 6.937 3.902 13.007 8.671 19.076 13.44 2.602 2.602 5.637 5.203 8.238 7.804l.868 1.3z"/><path fill="#28BDEF" d="M106.656 367.426l-.434.434c-3.902 3.469-8.238 6.07-12.573 8.238-.434 0-.434.434-.867.434-1.301.434-2.168.867-3.469 1.301-4.336 1.734-8.671 3.035-13.007 3.902h-.434c-6.937 1.301-13.874.867-20.377-.867-2.602-3.468-4.77-6.503-6.504-9.972 1.301-2.168 2.602-4.336 3.902-6.07 1.734-2.602 3.901-4.77 6.069-6.503 1.734-1.734 3.902-3.469 6.07-4.77l6.503-3.902 5.203-2.602c1.301-.434 3.035-1.3 4.336-1.734 4.769 3.035 9.538 6.503 13.874 10.405 2.601 2.602 5.636 5.203 8.237 7.804 1.304 1.735 2.171 2.601 3.471 3.902z"/><path fill="#1FAFE4" d="M116.195 354.853c-2.602 4.769-6.07 8.671-9.538 12.14l-.434.434c-3.902 3.469-8.238 6.07-12.573 8.238-.434 0-.434.434-.867.434-1.301.434-2.168.867-3.469 1.301-4.336 1.734-8.671 3.035-13.007 3.902-6.504-6.937-12.573-15.175-17.343-23.412 1.734-1.301 3.902-3.035 6.07-4.336l6.503-3.902 5.203-2.602c1.301-.434 3.035-1.3 4.336-1.734 1.733-.434 3.034-.867 4.769-1.301 5.637-1.301 11.706-1.734 17.776-1.301 3.469 3.035 7.37 6.503 10.839 9.972.434.866 1.301 1.733 1.735 2.167z"/><path fill="#6DCAD5" d="M120.097 347.482c-.867 2.602-2.168 5.203-3.902 7.371-2.602 4.769-6.07 8.671-9.538 12.14l-.434.434c-3.902 3.469-8.238 6.07-12.573 8.238-.434 0-.434.434-.867.434l-.867-.867c-2.602-2.602-5.203-5.636-7.805-8.238-4.769-5.636-9.104-11.272-12.573-17.342l5.203-2.602c1.301-.434 3.035-1.3 4.336-1.734 1.733-.434 3.034-.867 4.769-1.301 5.637-1.301 11.706-1.734 17.776-1.301 5.635.866 11.272 2.601 16.475 4.768z"/><path fill="#0CBABE" d="M120.097 347.482c-.867 2.602-2.168 5.203-3.902 7.371-2.602 4.769-6.07 8.671-9.538 12.14l-.434.434c-1.301-.867-2.168-2.167-3.469-3.035-2.602-2.602-5.203-5.636-7.804-8.238-3.469-3.902-6.504-7.804-9.105-11.706 5.637-1.301 11.706-1.734 17.776-1.301 5.636.433 11.273 2.168 16.476 4.335z"/><path d="M229.115 436.71H180.99l-13.874 35.984h-3.902l39.888-104.054h3.469l39.888 104.054h-3.469l-13.875-35.984zm-46.824-3.035h45.523l-22.545-59.398h-.434l-22.544 59.398zm142.208 1.735c0 22.979-13.007 38.586-31.65 38.586-14.74 0-26.014-10.404-29.048-22.979v46.391h-3.469v-99.286h3.469v22.112c3.034-13.007 14.307-23.413 29.048-23.413 18.643.001 31.65 16.042 31.65 38.589zm-3.469 0c0-20.812-11.706-35.553-28.182-35.553-16.908 0-28.614 14.308-28.614 35.119s11.706 35.117 28.614 35.117c16.476.867 28.182-13.439 28.182-34.683zm84.112 0c0 22.979-13.007 38.586-31.65 38.586-14.741 0-26.014-10.404-29.049-22.979v46.391h-3.468v-99.286h3.468v22.112c3.035-13.007 14.308-23.413 29.049-23.413 18.643.001 31.65 16.042 31.65 38.589zm-3.469 0c0-20.812-11.706-35.553-28.182-35.553-16.909 0-28.615 14.308-28.615 35.119s11.706 35.117 28.615 35.117c16.476.867 28.182-13.439 28.182-34.683zm20.812-66.336h3.468v104.055h-3.468V369.074zm84.11 83.244c-2.602 12.574-13.44 21.678-30.35 21.678-19.943 0-32.95-14.307-32.95-38.586 0-23.414 13.007-38.588 32.517-38.588 19.077 0 32.084 14.741 32.084 35.987v2.602h-60.698c0 22.111 11.706 35.117 29.481 35.117 14.741 0 24.28-8.238 26.447-18.643h3.469v.433zm-59.831-19.944h57.23c0-19.078-11.273-32.084-28.182-32.084-16.908 0-28.181 13.007-29.048 32.084zm73.705-32.518l6.938-30.783h3.901l-7.37 30.783h-3.469zm42.056-3.034c15.175 0 25.146 8.671 26.881 22.979h-3.469c-1.734-12.14-10.405-19.51-23.412-19.51-12.14 0-21.245 6.937-21.245 16.476 0 7.804 5.203 12.14 18.21 15.175l9.972 2.168c14.741 3.469 20.812 9.105 20.812 19.076 0 12.141-10.839 20.377-26.881 20.377-15.608 0-27.314-9.104-28.615-22.111h3.469c1.3 11.273 11.706 19.078 24.713 19.078 13.44 0 22.979-6.938 22.979-17.344 0-8.67-5.203-13.439-18.21-16.475l-9.972-2.168c-14.308-3.035-20.811-9.105-20.811-18.21.432-10.84 11.271-19.511 25.579-19.511z" fill="#FFF"/></svg>