<?xml version="1.0" encoding="utf-8"?>
<!-- Generator: Adobe Illustrator 16.0.2, SVG Export Plug-In . SVG Version: 6.00 Build 0)  -->
<!DOCTYPE svg PUBLIC "-//W3C//DTD SVG 1.1//EN" "http://www.w3.org/Graphics/SVG/1.1/DTD/svg11.dtd">
<svg version="1.1" id="Слой_1" xmlns="http://www.w3.org/2000/svg" xmlns:xlink="http://www.w3.org/1999/xlink" x="0px" y="0px"
	 width="137.328px" height="40px" viewBox="0 0 137.328 40" enable-background="new 0 0 137.328 40" xml:space="preserve">
<g>
	<path fill="#EF7778" d="M15.622,32.952c-0.332,0.195-0.678,0.374-1.034,0.536c-1.198,0.536-2.528,0.832-3.921,0.832
		c-5.321,0-9.638-4.313-9.638-9.633c0-0.406,0.024-0.804,0.076-1.193c0.185-1.521,0.727-2.924,1.535-4.138
		c0.36-0.542,0.771-1.042,1.233-1.5c1.715,1.084,3.515,2.523,5.245,4.252c2.718,2.72,4.729,5.624,5.757,8.084
		C15.295,31.201,15.551,32.134,15.622,32.952"/>
	<path fill="#A74C8A" d="M18.239,30.636c-0.085,0.109-0.175,0.22-0.266,0.324c-0.672,0.783-1.464,1.454-2.352,1.991
		c-0.332,0.195-0.677,0.377-1.034,0.537c-2.798-0.441-6.765-2.81-10.406-6.444c-1.163-1.168-2.202-2.367-3.079-3.55
		c0.185-1.521,0.727-2.924,1.535-4.138c0.36-0.542,0.772-1.043,1.233-1.5c0.326-0.327,0.677-0.626,1.048-0.901
		c0.686-0.513,1.444-0.934,2.256-1.245c0.868,0.587,1.75,1.259,2.628,2.011c0.647,0.551,1.289,1.148,1.92,1.781
		c0.632,0.632,1.229,1.273,1.78,1.92c1.971,2.303,3.405,4.63,4.152,6.625C18.013,28.999,18.213,29.872,18.239,30.636"/>
	<path fill="#453583" d="M20.27,25.449c-0.005,0.061-0.01,0.115-0.015,0.175c-0.1,1.034-0.361,2.018-0.762,2.93
		c-0.332,0.753-0.752,1.448-1.254,2.082c-0.085,0.109-0.175,0.22-0.266,0.324c-0.892-0.02-1.946-0.285-3.098-0.768
		c-2.462-1.026-5.367-3.037-8.085-5.756c-1.675-1.676-3.078-3.415-4.151-5.08c0.36-0.542,0.771-1.043,1.233-1.5
		c0.326-0.327,0.676-0.626,1.048-0.901c0.687-0.513,1.444-0.934,2.256-1.245c0.272-0.111,0.551-0.206,0.837-0.285
		c0.843-0.242,1.73-0.372,2.653-0.372c0.632,0,1.253,0.061,1.85,0.181c0.016,0,0.041,0.005,0.041,0.005
		c0.597,0.516,1.188,1.067,1.774,1.655c0.632,0.631,1.229,1.274,1.781,1.92C18.083,21.121,19.522,23.454,20.27,25.449"/>
	<path fill="#1E4AA5" d="M20.3,24.688c0,0.255-0.01,0.512-0.03,0.762c-0.005,0.061-0.009,0.115-0.015,0.175
		c-0.1,1.033-0.361,2.018-0.761,2.93c-0.567-0.09-1.185-0.261-1.836-0.507c-2.553-0.957-5.651-3.05-8.54-5.938
		c-1.7-1.698-3.12-3.465-4.197-5.153c0.687-0.511,1.444-0.933,2.256-1.245c0.271-0.111,0.551-0.206,0.837-0.285
		c0.843-0.242,1.73-0.372,2.653-0.372c0.633,0,1.254,0.061,1.85,0.181c0.016,0,0.041,0.005,0.041,0.005
		c3.349,0.667,6.077,3.08,7.196,6.244C20.109,22.484,20.3,23.564,20.3,24.688"/>
	<path fill="#4885C6" d="M13.45,10.852c-0.688-0.166-1.409-0.401-2.167-0.718c0.226-0.531,0.461-1.022,0.718-1.473
		c0.281-0.512,0.581-0.979,0.892-1.4c1.645,0.928,3.405,2.211,5.131,3.782c-1.354,0.229-2.864,0.229-4.574-0.186V10.852z"/>
	<path fill="#4885C6" d="M20.3,24.688c0,0.255-0.01,0.512-0.03,0.762c-0.005,0.061-0.009,0.115-0.015,0.175
		c-2.021-0.731-4.403-2.189-6.75-4.202c-0.646-0.551-1.289-1.147-1.92-1.779c-0.632-0.634-1.229-1.275-1.78-1.922
		c-0.657-0.766-1.254-1.538-1.792-2.296c0.843-0.242,1.73-0.372,2.653-0.372c0.633,0,1.254,0.061,1.85,0.181
		c0.016,0,0.041,0.005,0.041,0.005c3.349,0.667,6.077,3.08,7.196,6.244C20.109,22.484,20.3,23.564,20.3,24.688"/>
	<path fill="#89D4F5" d="M19.753,21.484c-1.184-0.72-2.417-1.621-3.64-2.67c-0.647-0.55-1.289-1.149-1.921-1.78
		c-0.592-0.592-1.154-1.193-1.676-1.8c0.016,0,0.041,0.005,0.041,0.005C15.906,15.906,18.635,18.319,19.753,21.484"/>
	<path fill="#89D4F5" d="M21.97,9.738c-0.065,0.029-0.125,0.061-0.186,0.085c-0.261,0.12-0.517,0.231-0.773,0.335
		c-0.893,0.367-1.855,0.688-2.908,0.874c-0.025,0.005-0.055,0.005-0.081,0.011c-1.353,0.229-2.862,0.229-4.573-0.186v-0.005
		c-0.688-0.166-1.409-0.401-2.167-0.717c0.226-0.532,0.461-1.023,0.718-1.474c0.28-0.512,0.581-0.979,0.892-1.4
		c0.427-0.572,0.868-1.063,1.329-1.5c0.441-0.406,0.888-0.763,1.349-1.068c1.379,0.782,2.833,1.815,4.278,3.059
		c0.632,0.541,1.263,1.123,1.881,1.746C21.809,9.578,21.89,9.657,21.97,9.738"/>
	<path fill="#28BDEF" d="M24.923,7.777c-0.04,0.035-0.085,0.07-0.125,0.105c-0.908,0.813-1.871,1.394-2.828,1.856
		c-0.065,0.029-0.126,0.061-0.186,0.084c-0.261,0.121-0.517,0.232-0.772,0.336c-0.893,0.366-1.855,0.688-2.908,0.874
		c-0.025,0.005-0.055,0.005-0.081,0.011c-1.354,0.229-2.863,0.229-4.573-0.186v-0.006c-0.542-0.742-1.028-1.473-1.449-2.19
		c0.28-0.512,0.581-0.979,0.892-1.4c0.427-0.572,0.868-1.063,1.329-1.5c0.441-0.406,0.889-0.763,1.349-1.067
		c0.478-0.327,0.958-0.602,1.439-0.844c0.407-0.205,0.809-0.386,1.204-0.545c0.321-0.13,0.646-0.256,0.989-0.371h0.004
		c1.018,0.667,2.066,1.454,3.109,2.352c0.631,0.542,1.263,1.124,1.881,1.746C24.447,7.276,24.688,7.526,24.923,7.777"/>
	<path fill="#1FAFE4" d="M27.11,5.014c-0.657,1.139-1.399,2.036-2.187,2.763c-0.04,0.035-0.085,0.07-0.125,0.105
		c-0.908,0.813-1.871,1.395-2.828,1.856c-0.065,0.029-0.125,0.061-0.186,0.084c-0.261,0.121-0.517,0.232-0.773,0.336
		c-0.893,0.366-1.855,0.688-2.908,0.874c-1.63-1.771-2.944-3.58-3.881-5.271c0.441-0.406,0.887-0.763,1.349-1.069
		c0.477-0.324,0.958-0.6,1.439-0.842c0.407-0.205,0.808-0.385,1.204-0.545c0.321-0.13,0.647-0.256,0.989-0.371h0.004
		c0.341-0.116,0.692-0.226,1.053-0.315c1.184-0.297,2.488-0.442,3.946-0.285c0.823,0.676,1.65,1.422,2.458,2.23
		C26.814,4.714,26.959,4.864,27.11,5.014"/>
	<path fill="#6DCAD5" d="M27.942,3.334c-0.255,0.612-0.536,1.168-0.832,1.681c-0.658,1.137-1.399,2.035-2.187,2.762
		c-0.04,0.037-0.084,0.071-0.125,0.105c-0.909,0.813-1.871,1.394-2.828,1.856c-0.065,0.029-0.125,0.061-0.186,0.085l-0.19-0.192
		c-0.622-0.617-1.204-1.247-1.745-1.88c-1.134-1.313-2.086-2.638-2.839-3.901c0.407-0.206,0.808-0.385,1.204-0.546
		c0.321-0.13,0.647-0.256,0.988-0.371h0.005c0.341-0.116,0.691-0.226,1.053-0.315c1.184-0.297,2.487-0.441,3.947-0.285
		C25.35,2.457,26.588,2.763,27.942,3.334"/>
	<path fill="#0CBABE" d="M27.942,3.334c-0.255,0.612-0.536,1.168-0.832,1.681c-0.658,1.137-1.399,2.035-2.187,2.762
		c-0.04,0.037-0.084,0.071-0.125,0.105c-0.247-0.23-0.492-0.471-0.738-0.716c-0.622-0.619-1.203-1.25-1.745-1.882
		c-0.767-0.892-1.46-1.789-2.056-2.667c1.184-0.297,2.487-0.441,3.947-0.285C25.35,2.457,26.588,2.763,27.942,3.334"/>
</g>
<g>
	<path d="M52.55,23.927H41.621l-3.094,8.16H37.63L46.67,8.583h0.831l9.04,23.503h-0.912L52.55,23.927z M41.914,23.178h10.343
		L47.126,9.706h-0.081L41.914,23.178z"/>
	<path d="M72.57,16.809c1.368,1.672,2.054,3.844,2.054,6.516c0,2.681-0.686,4.853-2.054,6.515c-1.367,1.672-3.148,2.509-5.341,2.509
		c-1.684,0-3.161-0.526-4.431-1.58c-1.206-0.998-1.988-2.271-2.346-3.812h-0.033v10.668h-0.797V14.561h0.749v5.228h0.033
		c0.369-1.574,1.162-2.872,2.378-3.894c1.27-1.064,2.753-1.596,4.447-1.596C69.411,14.3,71.191,15.136,72.57,16.809z M71.983,29.284
		c1.227-1.519,1.842-3.501,1.842-5.943c0-2.455-0.615-4.448-1.842-5.979c-1.237-1.542-2.839-2.313-4.805-2.313
		c-1.986,0-3.611,0.771-4.87,2.313c-1.258,1.543-1.889,3.53-1.889,5.962c0,2.432,0.631,4.42,1.889,5.96
		c1.259,1.532,2.884,2.298,4.87,2.298C69.145,31.582,70.746,30.816,71.983,29.284z"/>
	<path d="M91.386,16.809c1.366,1.672,2.053,3.844,2.053,6.516c0,2.681-0.687,4.853-2.053,6.515
		c-1.368,1.672-3.149,2.509-5.343,2.509c-1.684,0-3.16-0.526-4.43-1.58c-1.207-0.998-1.988-2.271-2.347-3.812h-0.032v10.668h-0.798
		V14.561h0.749v5.228h0.032c0.369-1.574,1.161-2.872,2.379-3.894c1.27-1.064,2.753-1.596,4.446-1.596
		C88.226,14.3,90.006,15.136,91.386,16.809z M90.799,29.284c1.228-1.519,1.84-3.501,1.84-5.943c0-2.455-0.612-4.448-1.84-5.979
		c-1.237-1.542-2.84-2.313-4.804-2.313c-1.988,0-3.611,0.771-4.872,2.313c-1.259,1.543-1.889,3.53-1.889,5.962
		c0,2.432,0.63,4.42,1.889,5.96c1.261,1.532,2.884,2.298,4.872,2.298C87.959,31.582,89.562,30.816,90.799,29.284z"/>
	<path d="M97.414,7.557h0.799v24.53h-0.799V7.557z"/>
	<path d="M117.044,27.217c-0.304,1.519-1.069,2.743-2.297,3.665c-1.292,0.977-2.894,1.466-4.805,1.466
		c-2.379,0-4.257-0.793-5.635-2.378c-1.414-1.608-2.117-3.823-2.117-6.646c0-2.715,0.693-4.897,2.083-6.548
		c1.391-1.65,3.237-2.476,5.539-2.476c2.226,0,4.027,0.778,5.408,2.329c1.366,1.554,2.053,3.59,2.053,6.108v0.619h-14.269v0.032
		c0,2.573,0.634,4.593,1.905,6.06c1.248,1.434,2.932,2.149,5.048,2.149c1.694,0,3.111-0.423,4.252-1.271
		c1.063-0.782,1.731-1.819,2.003-3.11H117.044z M105.024,17.133c-1.239,1.38-1.906,3.21-2.004,5.49h13.438
		c0-2.249-0.608-4.072-1.826-5.472c-1.226-1.4-2.833-2.102-4.819-2.102C107.858,15.049,106.262,15.744,105.024,17.133z"/>
	<path d="M119.977,15.83l2.135-7.247h0.814l-2.167,7.247H119.977z"/>
	<path d="M125.867,15.586c1.128-0.857,2.519-1.286,4.169-1.286c1.748,0,3.177,0.483,4.282,1.451
		c1.099,0.956,1.722,2.251,1.874,3.893h-0.781c-0.152-1.369-0.689-2.471-1.612-3.307c-0.978-0.858-2.232-1.287-3.763-1.287
		c-1.4,0-2.589,0.359-3.567,1.076c-1.021,0.738-1.531,1.666-1.531,2.785c0,0.922,0.314,1.655,0.945,2.199
		c0.608,0.51,1.591,0.922,2.947,1.236l2.721,0.652c1.737,0.424,2.99,0.987,3.763,1.693c0.771,0.717,1.156,1.667,1.156,2.852
		c0,1.422-0.598,2.578-1.792,3.469c-1.193,0.892-2.72,1.336-4.576,1.336c-1.835,0-3.372-0.511-4.609-1.531
		c-1.207-0.988-1.852-2.216-1.939-3.682h0.814c0.108,1.249,0.694,2.302,1.761,3.159c1.085,0.87,2.404,1.304,3.957,1.304
		c1.573,0,2.888-0.37,3.942-1.107c1.085-0.75,1.628-1.716,1.628-2.9c0-1.009-0.336-1.813-1.01-2.409
		c-0.673-0.598-1.786-1.079-3.339-1.449l-2.753-0.636c-1.498-0.358-2.601-0.857-3.307-1.5c-0.737-0.685-1.106-1.573-1.106-2.67
		C124.141,17.579,124.717,16.467,125.867,15.586z"/>
</g>
</svg>
